<svg id="visual" viewBox="0 0 900 250" width="900" height="250" xmlns="http://www.w3.org/2000/svg" xmlns:xlink="http://www.w3.org/1999/xlink" version="1.1"><rect x="0" y="0" width="900" height="250" fill="#3f81f4"></rect><path d="M0 41L21.5 51.2C43 61.3 86 81.7 128.8 90.2C171.7 98.7 214.3 95.3 257.2 88C300 80.7 343 69.3 385.8 69.3C428.7 69.3 471.3 80.7 514.2 83.7C557 86.7 600 81.3 642.8 76.5C685.7 71.7 728.3 67.3 771.2 74.8C814 82.3 857 101.7 878.5 111.3L900 121L900 251L878.5 251C857 251 814 251 771.2 251C728.3 251 685.7 251 642.8 251C600 251 557 251 514.2 251C471.3 251 428.7 251 385.8 251C343 251 300 251 257.2 251C214.3 251 171.7 251 128.8 251C86 251 43 251 21.5 251L0 251Z" fill="#3f81f4"></path><path d="M0 118L21.5 118.5C43 119 86 120 128.8 124.3C171.7 128.7 214.3 136.3 257.2 131.8C300 127.3 343 110.7 385.8 101.7C428.7 92.7 471.3 91.3 514.2 99.2C557 107 600 124 642.8 122C685.7 120 728.3 99 771.2 93.3C814 87.7 857 97.3 878.5 102.2L900 107L900 251L878.5 251C857 251 814 251 771.2 251C728.3 251 685.7 251 642.8 251C600 251 557 251 514.2 251C471.3 251 428.7 251 385.8 251C343 251 300 251 257.2 251C214.3 251 171.7 251 128.8 251C86 251 43 251 21.5 251L0 251Z" fill="#699cf6"></path><path d="M0 137L21.5 135.7C43 134.3 86 131.7 128.8 137C171.7 142.3 214.3 155.7 257.2 157.8C300 160 343 151 385.8 151.7C428.7 152.3 471.3 162.7 514.2 167.8C557 173 600 173 642.8 166.8C685.7 160.7 728.3 148.3 771.2 146.7C814 145 857 154 878.5 158.5L900 163L900 251L878.5 251C857 251 814 251 771.2 251C728.3 251 685.7 251 642.8 251C600 251 557 251 514.2 251C471.3 251 428.7 251 385.8 251C343 251 300 251 257.2 251C214.3 251 171.7 251 128.8 251C86 251 43 251 21.5 251L0 251Z" fill="#90b6f5"></path><path d="M0 152L21.5 157.8C43 163.7 86 175.3 128.8 181C171.7 186.7 214.3 186.3 257.2 182.7C300 179 343 172 385.8 174C428.7 176 471.3 187 514.2 188.3C557 189.7 600 181.3 642.8 179.2C685.7 177 728.3 181 771.2 177.3C814 173.7 857 162.3 878.5 156.7L900 151L900 251L878.5 251C857 251 814 251 771.2 251C728.3 251 685.7 251 642.8 251C600 251 557 251 514.2 251C471.3 251 428.7 251 385.8 251C343 251 300 251 257.2 251C214.3 251 171.7 251 128.8 251C86 251 43 251 21.5 251L0 251Z" fill="#b8cff3"></path><path d="M0 204L21.5 205.5C43 207 86 210 128.8 212.8C171.7 215.7 214.3 218.3 257.2 218.3C300 218.3 343 215.7 385.8 211.3C428.7 207 471.3 201 514.2 203.3C557 205.7 600 216.3 642.8 215.2C685.7 214 728.3 201 771.2 201C814 201 857 214 878.5 220.5L900 227L900 251L878.5 251C857 251 814 251 771.2 251C728.3 251 685.7 251 642.8 251C600 251 557 251 514.2 251C471.3 251 428.7 251 385.8 251C343 251 300 251 257.2 251C214.3 251 171.7 251 128.8 251C86 251 43 251 21.5 251L0 251Z" fill="#e2e8f0"></path></svg>