<svg id="visual" viewBox="0 0 2500 1800" width="2500" height="1800" xmlns="http://www.w3.org/2000/svg" xmlns:xlink="http://www.w3.org/1999/xlink" version="1.1"><rect x="0" y="0" width="2500" height="1800" fill="#357cff"></rect><path d="M0 152L52.2 197.5C104.3 243 208.7 334 312.8 322.5C417 311 521 197 625.2 179.2C729.3 161.3 833.7 239.7 937.8 260.8C1042 282 1146 246 1250.2 256.8C1354.3 267.7 1458.7 325.3 1562.8 326.8C1667 328.3 1771 273.7 1875.2 252.3C1979.3 231 2083.7 243 2187.8 223C2292 203 2396 151 2448 125L2500 99L2500 1801L2448 1801C2396 1801 2292 1801 2187.8 1801C2083.7 1801 1979.3 1801 1875.2 1801C1771 1801 1667 1801 1562.8 1801C1458.7 1801 1354.3 1801 1250.2 1801C1146 1801 1042 1801 937.8 1801C833.7 1801 729.3 1801 625.2 1801C521 1801 417 1801 312.8 1801C208.7 1801 104.3 1801 52.2 1801L0 1801Z" fill="#4280f2"></path><path d="M0 313L52.2 338.8C104.3 364.7 208.7 416.3 312.8 452.8C417 489.3 521 510.7 625.2 492.7C729.3 474.7 833.7 417.3 937.8 422.7C1042 428 1146 496 1250.2 515.8C1354.3 535.7 1458.7 507.3 1562.8 463.8C1667 420.3 1771 361.7 1875.2 373.3C1979.3 385 2083.7 467 2187.8 459.5C2292 452 2396 355 2448 306.5L2500 258L2500 1801L2448 1801C2396 1801 2292 1801 2187.8 1801C2083.7 1801 1979.3 1801 1875.2 1801C1771 1801 1667 1801 1562.8 1801C1458.7 1801 1354.3 1801 1250.2 1801C1146 1801 1042 1801 937.8 1801C833.7 1801 729.3 1801 625.2 1801C521 1801 417 1801 312.8 1801C208.7 1801 104.3 1801 52.2 1801L0 1801Z" fill="#6a7aed"></path><path d="M0 725L52.2 712.7C104.3 700.3 208.7 675.7 312.8 627.8C417 580 521 509 625.2 502C729.3 495 833.7 552 937.8 595C1042 638 1146 667 1250.2 655.8C1354.3 644.7 1458.7 593.3 1562.8 565.7C1667 538 1771 534 1875.2 519C1979.3 504 2083.7 478 2187.8 469C2292 460 2396 468 2448 472L2500 476L2500 1801L2448 1801C2396 1801 2292 1801 2187.8 1801C2083.7 1801 1979.3 1801 1875.2 1801C1771 1801 1667 1801 1562.8 1801C1458.7 1801 1354.3 1801 1250.2 1801C1146 1801 1042 1801 937.8 1801C833.7 1801 729.3 1801 625.2 1801C521 1801 417 1801 312.8 1801C208.7 1801 104.3 1801 52.2 1801L0 1801Z" fill="#8673e6"></path><path d="M0 858L52.2 860.8C104.3 863.7 208.7 869.3 312.8 838.8C417 808.3 521 741.7 625.2 745.7C729.3 749.7 833.7 824.3 937.8 860.2C1042 896 1146 893 1250.2 854.2C1354.3 815.3 1458.7 740.7 1562.8 704.7C1667 668.7 1771 671.3 1875.2 679.2C1979.3 687 2083.7 700 2187.8 731C2292 762 2396 811 2448 835.5L2500 860L2500 1801L2448 1801C2396 1801 2292 1801 2187.8 1801C2083.7 1801 1979.3 1801 1875.2 1801C1771 1801 1667 1801 1562.8 1801C1458.7 1801 1354.3 1801 1250.2 1801C1146 1801 1042 1801 937.8 1801C833.7 1801 729.3 1801 625.2 1801C521 1801 417 1801 312.8 1801C208.7 1801 104.3 1801 52.2 1801L0 1801Z" fill="#9e6cdd"></path><path d="M0 995L52.2 985.8C104.3 976.7 208.7 958.3 312.8 939.8C417 921.3 521 902.7 625.2 921C729.3 939.3 833.7 994.7 937.8 1011.3C1042 1028 1146 1006 1250.2 985.8C1354.3 965.7 1458.7 947.3 1562.8 955.5C1667 963.7 1771 998.3 1875.2 1006C1979.3 1013.7 2083.7 994.3 2187.8 958C2292 921.7 2396 868.3 2448 841.7L2500 815L2500 1801L2448 1801C2396 1801 2292 1801 2187.8 1801C2083.7 1801 1979.3 1801 1875.2 1801C1771 1801 1667 1801 1562.8 1801C1458.7 1801 1354.3 1801 1250.2 1801C1146 1801 1042 1801 937.8 1801C833.7 1801 729.3 1801 625.2 1801C521 1801 417 1801 312.8 1801C208.7 1801 104.3 1801 52.2 1801L0 1801Z" fill="#b165d3"></path><path d="M0 1181L52.2 1178C104.3 1175 208.7 1169 312.8 1174.5C417 1180 521 1197 625.2 1169.7C729.3 1142.3 833.7 1070.7 937.8 1035.3C1042 1000 1146 1001 1250.2 1040.3C1354.3 1079.7 1458.7 1157.3 1562.8 1193.8C1667 1230.3 1771 1225.7 1875.2 1201.5C1979.3 1177.3 2083.7 1133.7 2187.8 1090.5C2292 1047.3 2396 1004.7 2448 983.3L2500 962L2500 1801L2448 1801C2396 1801 2292 1801 2187.8 1801C2083.7 1801 1979.3 1801 1875.2 1801C1771 1801 1667 1801 1562.8 1801C1458.7 1801 1354.3 1801 1250.2 1801C1146 1801 1042 1801 937.8 1801C833.7 1801 729.3 1801 625.2 1801C521 1801 417 1801 312.8 1801C208.7 1801 104.3 1801 52.2 1801L0 1801Z" fill="#c15ec7"></path><path d="M0 1280L52.2 1268.2C104.3 1256.3 208.7 1232.7 312.8 1254.7C417 1276.7 521 1344.3 625.2 1346.8C729.3 1349.3 833.7 1286.7 937.8 1278.7C1042 1270.7 1146 1317.3 1250.2 1305.8C1354.3 1294.3 1458.7 1224.7 1562.8 1225.7C1667 1226.7 1771 1298.3 1875.2 1319C1979.3 1339.7 2083.7 1309.3 2187.8 1299.5C2292 1289.7 2396 1300.3 2448 1305.7L2500 1311L2500 1801L2448 1801C2396 1801 2292 1801 2187.8 1801C2083.7 1801 1979.3 1801 1875.2 1801C1771 1801 1667 1801 1562.8 1801C1458.7 1801 1354.3 1801 1250.2 1801C1146 1801 1042 1801 937.8 1801C833.7 1801 729.3 1801 625.2 1801C521 1801 417 1801 312.8 1801C208.7 1801 104.3 1801 52.2 1801L0 1801Z" fill="#cf57ba"></path><path d="M0 1380L52.2 1391C104.3 1402 208.7 1424 312.8 1432.7C417 1441.3 521 1436.7 625.2 1426.2C729.3 1415.7 833.7 1399.3 937.8 1410.2C1042 1421 1146 1459 1250.2 1486.3C1354.3 1513.7 1458.7 1530.3 1562.8 1531.2C1667 1532 1771 1517 1875.2 1497.2C1979.3 1477.3 2083.7 1452.7 2187.8 1429C2292 1405.3 2396 1382.7 2448 1371.3L2500 1360L2500 1801L2448 1801C2396 1801 2292 1801 2187.8 1801C2083.7 1801 1979.3 1801 1875.2 1801C1771 1801 1667 1801 1562.8 1801C1458.7 1801 1354.3 1801 1250.2 1801C1146 1801 1042 1801 937.8 1801C833.7 1801 729.3 1801 625.2 1801C521 1801 417 1801 312.8 1801C208.7 1801 104.3 1801 52.2 1801L0 1801Z" fill="#da50ad"></path><path d="M0 1525L52.2 1527.5C104.3 1530 208.7 1535 312.8 1533.5C417 1532 521 1524 625.2 1530.3C729.3 1536.7 833.7 1557.3 937.8 1568.2C1042 1579 1146 1580 1250.2 1575.2C1354.3 1570.3 1458.7 1559.7 1562.8 1573C1667 1586.3 1771 1623.7 1875.2 1648C1979.3 1672.3 2083.7 1683.7 2187.8 1680.8C2292 1678 2396 1661 2448 1652.5L2500 1644L2500 1801L2448 1801C2396 1801 2292 1801 2187.8 1801C2083.7 1801 1979.3 1801 1875.2 1801C1771 1801 1667 1801 1562.8 1801C1458.7 1801 1354.3 1801 1250.2 1801C1146 1801 1042 1801 937.8 1801C833.7 1801 729.3 1801 625.2 1801C521 1801 417 1801 312.8 1801C208.7 1801 104.3 1801 52.2 1801L0 1801Z" fill="#e34b9e"></path></svg>